<svg width="20" height="20" viewBox="0 0 20 20" fill="none" xmlns="http://www.w3.org/2000/svg">
<path d="M17.8418 12.2755L15.6255 15.1737C15.182 15.7536 14.4937 16.0938 13.7637 16.0938H9.64844C9.32484 16.0938 9.0625 15.8314 9.0625 15.5078C9.0625 15.1842 9.32484 14.9219 9.64844 14.9219H13.2152C13.9818 14.9219 14.6238 14.2945 14.6091 13.528C14.5949 12.7852 13.9884 12.1875 13.2422 12.1875H9.14062C7.96301 11.0552 6.14574 10.9227 4.81633 11.8723L4.375 12.1875V18.8281H8.28125H9.0625H14.565C15.7613 18.8281 16.8754 18.2199 17.5223 17.2136L19.8089 13.6565C19.9337 13.4625 20 13.2368 20 13.0061C20 11.8559 18.5404 11.3618 17.8418 12.2755V12.2755Z" fill="#7DD56F"/>
<path d="M2.61719 11.0156H0.585938C0.262344 11.0156 0 11.278 0 11.6016V19.4141C0 19.7377 0.262344 20 0.585938 20H2.61719C2.94078 20 3.20312 19.7377 3.20312 19.4141V11.6016C3.20312 11.278 2.94078 11.0156 2.61719 11.0156Z" fill="#7DD56F"/>
<path d="M11.184 3.23846C11.0648 3.32987 10.9991 3.46827 10.9765 3.58831C10.9453 3.75389 10.9848 3.90772 11.0771 3.98014C11.1097 4.00565 11.1455 4.03073 11.184 4.05538V3.23846Z" fill="#7DD56F"/>
<path d="M11.6016 9.76562C14.2939 9.76562 16.4844 7.5752 16.4844 4.88281C16.4844 2.19043 14.2939 0 11.6016 0C8.90918 0 6.71875 2.19043 6.71875 4.88281C6.71875 7.5752 8.90918 9.76562 11.6016 9.76562ZM10.1235 6.47926C10.2415 6.29879 10.4837 6.24801 10.6642 6.36621C10.8752 6.50422 11.0074 6.56406 11.184 6.58887V4.93922C10.9345 4.82488 10.748 4.71484 10.595 4.5948C10.2708 4.34055 10.1228 3.89945 10.2087 3.44355C10.3023 2.94676 10.6481 2.55148 11.1111 2.41203C11.1357 2.40465 11.1599 2.39789 11.184 2.39152V2.14844C11.184 1.93273 11.3589 1.75781 11.5746 1.75781C11.7903 1.75781 11.9652 1.93273 11.9652 2.14844V2.34871C12.3445 2.41437 12.6125 2.60109 12.7424 2.75012C12.8841 2.91277 12.8671 3.15953 12.7044 3.30121C12.5426 3.44215 12.2977 3.42613 12.1555 3.26586C12.1466 3.25684 12.0846 3.19707 11.9652 3.15305V4.41523C12.0346 4.44098 12.1039 4.46594 12.1719 4.49C12.8585 4.73273 13.2404 5.36836 13.1222 6.07168C13.0303 6.61836 12.6143 7.17277 11.9652 7.33742V7.61719C11.9652 7.83289 11.7903 8.00781 11.5746 8.00781C11.3589 8.00781 11.184 7.83289 11.184 7.61719V7.37492C10.8686 7.34766 10.6071 7.26246 10.2365 7.02C10.056 6.90188 10.0054 6.6598 10.1235 6.47926V6.47926Z" fill="#7DD56F"/>
<path d="M12.3518 5.94219C12.3775 5.78949 12.388 5.42563 11.9652 5.24762V6.50235C12.1849 6.37649 12.3162 6.15391 12.3518 5.94219Z" fill="#7DD56F"/>
</svg>
