<svg width="512" height="512" viewBox="0 0 512 512" fill="none" xmlns="http://www.w3.org/2000/svg">
<path d="M279.893 512H232.107C215.957 512 202.325 499.904 200.405 483.84L195.307 443.819C185.131 440.512 175.317 436.437 165.995 431.68L134.123 456.448C121.195 466.453 102.997 465.301 91.776 453.76L58.176 420.16C46.72 409.045 45.568 390.848 55.5733 377.941L80.3413 346.048C75.5627 336.725 71.488 326.912 68.2027 316.736L28.096 311.637C12.096 309.675 0 296.043 0 279.893V232.107C0 215.957 12.096 202.325 28.16 200.405L68.1813 195.307C71.488 185.131 75.5627 175.317 80.32 165.995L55.5733 134.123C45.5467 121.195 46.72 102.976 58.2827 91.7547L91.8827 58.1547C102.997 46.6987 121.216 45.568 134.101 55.552L165.973 80.3413C175.296 75.584 185.109 71.5093 195.307 68.2027L200.405 28.096C202.325 12.096 215.957 0 232.107 0H279.893C296.043 0 309.675 12.096 311.595 28.16L316.693 68.1813C326.891 71.488 336.704 75.5627 346.027 80.32L377.899 55.552C390.848 45.5467 409.024 46.6987 420.245 58.2613L453.845 91.8613C465.301 102.976 466.453 121.173 456.448 134.08L431.68 165.973C436.459 175.296 440.533 185.109 443.819 195.285L483.925 200.384C499.904 202.325 512 215.957 512 232.107V279.893C512 296.043 499.904 309.675 483.84 311.595L443.819 316.693C440.512 326.869 436.437 336.683 431.68 346.005L456.448 377.877C466.475 390.805 465.301 409.003 453.739 420.224L420.139 453.824C409.024 465.28 390.805 466.453 377.92 456.427L346.027 431.659C336.704 436.437 326.891 440.512 316.715 443.797L311.616 483.904C309.675 499.904 296.043 512 279.893 512V512ZM164.907 408.32C166.677 408.32 168.491 408.768 170.112 409.664C181.867 416.235 194.603 421.525 207.957 425.365C212.053 426.539 215.061 430.037 215.595 434.261L221.568 481.195C222.208 486.549 226.837 490.667 232.107 490.667H279.893C285.163 490.667 289.792 486.549 290.411 481.301L296.405 434.283C296.939 430.059 299.947 426.56 304.043 425.387C317.397 421.547 330.133 416.256 341.888 409.685C345.621 407.595 350.272 407.957 353.621 410.581L390.955 439.595C395.243 442.923 401.259 442.645 404.928 438.869L438.741 405.056C442.603 401.301 442.901 395.285 439.573 390.976L410.56 353.643C407.936 350.272 407.573 345.643 409.664 341.909C416.235 330.155 421.525 317.419 425.365 304.064C426.539 299.968 430.037 296.96 434.261 296.427L481.195 290.453C486.549 289.792 490.667 285.163 490.667 279.893V232.107C490.667 226.837 486.549 222.208 481.301 221.589L434.283 215.595C430.059 215.061 426.56 212.053 425.387 207.957C421.547 194.603 416.256 181.867 409.685 170.112C407.595 166.379 407.936 161.749 410.581 158.379L439.595 121.045C442.944 116.736 442.645 110.72 438.891 107.093L405.077 73.28C401.344 69.3973 395.307 69.0987 390.997 72.448L353.664 101.461C350.272 104.085 345.643 104.448 341.909 102.357C330.197 95.7867 317.461 90.5173 304.064 86.656C299.968 85.4827 296.96 81.984 296.427 77.76L290.453 30.8267C289.792 25.4507 285.163 21.3333 279.893 21.3333H232.107C226.837 21.3333 222.208 25.4507 221.589 30.6987L215.595 77.7173C215.061 81.9413 212.053 85.44 207.957 86.6347C194.56 90.4747 181.824 95.7653 170.112 102.315C166.379 104.427 161.749 104.043 158.357 101.44L121.024 72.4267C116.715 69.0773 110.72 69.376 107.072 73.1307L73.2587 106.965C69.3973 110.72 69.0987 116.736 72.4267 121.045L101.44 158.379C104.064 161.749 104.427 166.379 102.336 170.112C95.744 181.867 90.4747 194.603 86.6347 207.957C85.4613 212.053 81.9627 215.061 77.7387 215.595L30.8053 221.568C25.4507 222.208 21.3333 226.837 21.3333 232.107V279.893C21.3333 285.163 25.4507 289.792 30.6987 290.411L77.7173 296.405C81.9413 296.939 85.44 299.947 86.6133 304.043C90.4533 317.397 95.744 330.133 102.315 341.888C104.405 345.621 104.064 350.251 101.419 353.621L72.4053 390.955C69.056 395.264 69.3547 401.28 73.1093 404.907L106.923 438.72C110.656 442.581 116.651 442.88 121.003 439.552L158.336 410.539C160.277 409.088 162.581 408.32 164.907 408.32V408.32Z" fill="white"/>
<path d="M256 362.667C197.184 362.667 149.333 314.816 149.333 256C149.333 197.184 197.184 149.333 256 149.333C314.816 149.333 362.667 197.184 362.667 256C362.667 314.816 314.816 362.667 256 362.667ZM256 170.667C208.939 170.667 170.667 208.939 170.667 256C170.667 303.061 208.939 341.333 256 341.333C303.061 341.333 341.333 303.061 341.333 256C341.333 208.939 303.061 170.667 256 170.667Z" fill="white"/>
</svg>
