<svg width="24" height="24" viewBox="0 0 24 24" fill="none" xmlns="http://www.w3.org/2000/svg">
<path d="M14.683 14.828C14.498 15.012 14.299 15.177 14.091 15.317C13.874 15.463 13.646 15.587 13.411 15.686C13.167 15.789 12.915 15.867 12.662 15.919C12.131 16.027 11.575 16.027 11.046 15.919C10.792 15.867 10.54 15.789 10.296 15.686C10.062 15.587 9.83299 15.463 9.61699 15.317C9.40799 15.176 9.20899 15.012 9.02399 14.828C8.84299 14.647 8.67799 14.448 8.53599 14.236L6.87799 15.355C7.09299 15.673 7.33999 15.972 7.61199 16.244C7.88499 16.517 8.18399 16.764 8.49899 16.975C8.82199 17.193 9.16499 17.379 9.51899 17.528C9.88399 17.682 10.263 17.8 10.647 17.878C11.043 17.959 11.449 18 11.854 18C12.259 18 12.665 17.959 13.062 17.878C13.445 17.8 13.824 17.682 14.189 17.528C14.543 17.379 14.885 17.193 15.21 16.975C15.523 16.763 15.822 16.517 16.096 16.244C16.368 15.973 16.616 15.673 16.83 15.355L15.172 14.236C15.028 14.448 14.863 14.647 14.683 14.828Z" fill="white"/>
<path d="M12 2C6.486 2 2 6.486 2 12C2 17.514 6.486 22 12 22C17.514 22 22 17.514 22 12C22 6.486 17.514 2 12 2ZM12 4C14.953 4 17.531 5.613 18.918 8H17H15H9H7H5.082C6.469 5.613 9.047 4 12 4ZM12 20C7.589 20 4 16.411 4 12C4 11.309 4.098 10.641 4.264 10H5V11C5 12.104 5.896 13 7 13H9C10.104 13 11 12.104 11 11H13C13 12.104 13.896 13 15 13H17C18.104 13 19 12.104 19 11V10H19.736C19.902 10.641 20 11.309 20 12C20 16.411 16.411 20 12 20Z" fill="white"/>
</svg>
