<svg width="478" height="478" viewBox="0 0 478 478" fill="none" xmlns="http://www.w3.org/2000/svg">
<g clip-path="url(#clip0)">
<path d="M469.11 170.122C463.648 163.992 456.184 160.005 448.052 158.873V158.856L321.042 141.311L270.781 21.213C263.442 3.63401 243.242 -4.66698 225.664 2.67202C217.284 6.17102 210.621 12.833 207.123 21.213L156.862 141.311L29.852 158.856C10.929 161.49 -2.27598 178.967 0.358023 197.89C1.49002 206.022 5.47702 213.486 11.607 218.948L107.3 304.281L87.638 438.185C85.508 451.782 91.753 465.329 103.476 472.54C115.034 479.931 129.901 479.655 141.176 471.84L238.951 405.348L336.726 471.908C352.503 482.616 373.974 478.507 384.683 462.73C389.549 455.56 391.542 446.823 390.265 438.253L370.604 304.297L466.297 218.964C480.561 206.254 481.821 184.386 469.11 170.122ZM341.01 285.012C336.729 288.837 334.658 294.557 335.497 300.236L355.977 443.596L248.594 370.585C242.805 366.651 235.2 366.651 229.411 370.585L121.396 443.152L142.405 300.168C143.221 294.512 141.151 288.823 136.892 285.013L34.492 192.716L171.162 173.857C177.146 173.032 182.247 169.105 184.576 163.532L239.155 34.133C239.217 34.209 239.263 34.296 239.292 34.389L293.308 163.464C295.637 169.037 300.739 172.964 306.722 173.789L443.563 193.484L341.01 285.012Z" fill="white"/>
</g>
<defs>
<clipPath id="clip0">
<rect width="477.899" height="477.899" fill="white"/>
</clipPath>
</defs>
</svg>
