<svg width="20" height="20" viewBox="0 0 20 20" fill="none" xmlns="http://www.w3.org/2000/svg">
<path d="M17.6453 9.26801C16.9648 8.92777 15.6888 8.92383 15.6348 8.92383C15.473 8.92383 15.3418 9.055 15.3418 9.2168C15.3418 9.37859 15.473 9.50977 15.6348 9.50977C15.9641 9.5098 16.9201 9.56051 17.3833 9.79211C17.4254 9.81316 17.4701 9.82309 17.5141 9.82309C17.6215 9.82309 17.725 9.76371 17.7763 9.66109C17.8487 9.51637 17.7901 9.34039 17.6453 9.26801Z" fill="#7DD56F"/>
<path d="M19.1059 13.4391L17.896 13.0934C17.8437 13.0785 17.8073 13.0301 17.8073 12.9758V12.5719C17.9057 12.5037 17.9996 12.4274 18.0874 12.3422C18.5128 11.9294 18.747 11.3756 18.747 10.783V10.2257L18.864 9.99174C18.9924 9.73491 19.0603 9.44737 19.0603 9.16026V7.65049C19.0603 7.4887 18.9291 7.35752 18.7673 7.35752H15.948C14.9229 7.35752 14.0888 8.19159 14.0888 9.21674V9.2342C14.0888 9.47295 14.1453 9.71206 14.252 9.92557L14.4021 10.2256V10.7042C14.4021 11.4625 14.7758 12.143 15.3418 12.5524L15.3419 12.9757C15.3419 13.041 15.3419 13.068 15.1 13.1371L14.5096 13.3058L12.8018 12.6848C12.8079 12.6042 12.7807 12.5223 12.7219 12.4605L12.1762 11.8871V10.9246C12.2339 10.8771 12.2907 10.8283 12.3459 10.7766C13.0343 10.1313 13.4292 9.22022 13.4292 8.27698V7.50831C13.6371 7.05592 13.7424 6.57721 13.7424 6.0842V2.95178C13.7424 2.78999 13.6112 2.65881 13.4495 2.65881H9.06395C7.52059 2.65881 6.265 3.91444 6.265 5.45776V6.08428C6.265 6.57729 6.37035 7.056 6.57824 7.50838V8.16975C6.57824 9.26491 7.0652 10.2515 7.83125 10.902V11.8872L7.28551 12.4605C7.22672 12.5223 7.19953 12.6042 7.20566 12.6848L5.40313 13.3403C5.2725 13.3878 5.15113 13.4521 5.04094 13.53L4.75789 13.3885C5.60047 13.0217 5.86738 12.5059 5.8802 12.4803C5.92145 12.3978 5.92145 12.3007 5.8802 12.2183C5.66898 11.7958 5.6434 11.0216 5.62285 10.3995C5.61602 10.1924 5.60953 9.9967 5.59715 9.82248C5.49727 8.41725 4.42898 7.35752 3.11219 7.35752C1.79539 7.35752 0.72707 8.41721 0.627227 9.82248C0.614844 9.99674 0.608359 10.1924 0.601523 10.3996C0.580977 11.0216 0.555352 11.7958 0.34418 12.2182C0.30293 12.3007 0.30293 12.3978 0.34418 12.4803C0.356992 12.5059 0.623359 13.0206 1.46762 13.3878L0.681406 13.7809C0.261094 13.9912 0 14.4137 0 14.8836V17.048C0 17.2098 0.131172 17.341 0.292969 17.341C0.454766 17.341 0.585938 17.2098 0.585938 17.048V14.8836C0.585938 14.637 0.72293 14.4153 0.943438 14.3051L1.92246 13.8156L2.26301 14.1392C2.50113 14.3655 2.8066 14.4786 3.11219 14.4786C3.4177 14.4786 3.72332 14.3654 3.96137 14.1392L4.30187 13.8156L4.62109 13.9752C4.47078 14.2157 4.38547 14.4978 4.38547 14.7932V17.0481C4.38547 17.2099 4.51664 17.341 4.67844 17.341C4.84023 17.341 4.97141 17.2099 4.97141 17.0481V14.7932C4.97141 14.391 5.22535 14.0284 5.60336 13.891L7.50383 13.1999L8.29496 14.3867C8.39609 14.5384 8.55816 14.6357 8.73961 14.6537C8.75984 14.6556 8.77996 14.6566 8.80004 14.6566C8.96012 14.6566 9.11344 14.5936 9.22805 14.479L9.7107 13.9964V17.0481C9.7107 17.2099 9.84187 17.3411 10.0037 17.3411C10.1655 17.3411 10.2966 17.2099 10.2966 17.0481V13.9964L10.7793 14.479C10.8939 14.5937 11.0472 14.6567 11.2073 14.6567C11.2273 14.6567 11.2475 14.6557 11.2677 14.6537C11.4492 14.6357 11.6113 14.5384 11.7124 14.3867L12.5036 13.2L14.404 13.891C14.782 14.0285 15.0359 14.3911 15.0359 14.7933V17.0481C15.0359 17.2099 15.1671 17.3411 15.3289 17.3411C15.4907 17.3411 15.6219 17.2099 15.6219 17.0481V14.7933C15.6219 14.3859 15.46 14.0039 15.1886 13.7214L15.2609 13.7007C15.3339 13.6798 15.4336 13.6513 15.5336 13.6023L16.2816 14.3503V17.0481C16.2816 17.2099 16.4127 17.3411 16.5745 17.3411C16.7363 17.3411 16.8675 17.2099 16.8675 17.0481V14.3503L17.6103 13.6074C17.6498 13.6275 17.6913 13.6445 17.735 13.6569L18.945 14.0026C19.2211 14.0815 19.4141 14.3373 19.4141 14.6246V17.0481C19.4141 17.2099 19.5452 17.3411 19.707 17.3411C19.8688 17.3411 20 17.2099 20 17.0481V14.6246C20 14.077 19.6323 13.5895 19.1059 13.4391ZM1.87949 12.9216C1.33148 12.7244 1.0566 12.4615 0.939258 12.318C1.01926 12.1089 1.07113 11.8693 1.10625 11.6165C1.26781 12.0039 1.5384 12.3346 1.87949 12.5705V12.9216ZM3.55781 13.7145C3.30793 13.9519 2.91648 13.9519 2.66668 13.7145L2.39422 13.4556C2.4402 13.3694 2.46547 13.2718 2.46547 13.1695V12.8572C2.66984 12.9211 2.88711 12.9555 3.11227 12.9555C3.33715 12.9555 3.5543 12.9209 3.75902 12.8574L3.75898 13.1694C3.75898 13.2718 3.78422 13.3695 3.83023 13.4556L3.55781 13.7145ZM3.11234 12.3696C2.2375 12.3696 1.52582 11.6579 1.52582 10.7831C1.52582 10.6213 1.39465 10.4901 1.23285 10.4901C1.21645 10.4901 1.20043 10.4918 1.18477 10.4944C1.18562 10.4692 1.18645 10.444 1.1873 10.419C1.19383 10.2176 1.20012 10.0273 1.21172 9.86409C1.24914 9.33768 1.45949 8.8526 1.80402 8.49815C2.15164 8.14049 2.61625 7.94354 3.11227 7.94354C3.60828 7.94354 4.07285 8.14049 4.42051 8.49815C4.76504 8.8526 4.97539 9.33768 5.01281 9.86409C5.02438 10.0273 5.0307 10.2175 5.03734 10.4189C5.03793 10.4362 5.03852 10.4537 5.0391 10.4712C4.72035 9.98006 4.22809 9.61815 3.59203 9.41377C3.00441 9.22499 2.49902 9.23667 2.4777 9.23721C2.40098 9.23936 2.32816 9.27147 2.27492 9.3267L1.74633 9.87491C1.63402 9.99139 1.63738 10.1769 1.75387 10.2892C1.87035 10.4015 2.05582 10.3981 2.16813 10.2816L2.60797 9.82549C2.98676 9.84401 4.20539 9.98573 4.67934 11.0294C4.56008 11.7984 3.89906 12.3696 3.11234 12.3696ZM4.34488 12.9226L4.34492 12.5732C4.68574 12.3385 4.95672 12.0085 5.1184 11.6181C5.15352 11.8704 5.20535 12.1094 5.2852 12.3181C5.16852 12.4603 4.89234 12.7255 4.34488 12.9226ZM7.16418 8.16971V7.44284C7.16418 7.39874 7.15422 7.35518 7.13504 7.31545C6.94652 6.92506 6.85094 6.51084 6.85094 6.08428V5.4578C6.85094 4.23752 7.84371 3.24479 9.06395 3.24479H13.1565V6.08432C13.1565 6.51088 13.0609 6.9251 12.8724 7.31549C12.8532 7.35522 12.8432 7.39877 12.8432 7.44288V8.27706C12.8432 9.07045 12.5243 9.80635 11.9452 10.3492C11.8729 10.4169 11.7978 10.4805 11.7202 10.5396C11.7185 10.5408 11.7169 10.5421 11.7152 10.5433C11.1727 10.9552 10.5081 11.1554 9.81414 11.1105C8.32816 11.0142 7.16418 9.72252 7.16418 8.16971ZM8.81375 14.0647C8.81172 14.0667 8.80699 14.0715 8.79742 14.0705C8.78789 14.0696 8.78414 14.064 8.78254 14.0615L7.87141 12.6948L8.16461 12.3867L9.54684 13.3315L8.81375 14.0647ZM10.0037 12.9341L8.41719 11.8496V11.3028C8.8277 11.5247 9.28734 11.6635 9.77621 11.6951C9.85344 11.7001 9.9302 11.7026 10.0067 11.7026C10.5669 11.7026 11.1061 11.5687 11.5902 11.3145V11.8496L10.0037 12.9341ZM11.2249 14.0616C11.2233 14.064 11.2195 14.0696 11.21 14.0706C11.2004 14.0718 11.1957 14.0667 11.1937 14.0648L10.4606 13.3317L11.8428 12.3868L12.1361 12.6949L11.2249 14.0616ZM16.5745 13.8144L15.9097 13.1496C15.9213 13.0969 15.9279 13.0392 15.9278 12.9756L15.9278 12.852C16.1123 12.9125 16.3067 12.9485 16.5079 12.9545C16.5305 12.9552 16.5529 12.9555 16.5754 12.9555C16.7977 12.9555 17.0148 12.9219 17.2213 12.8578V12.9758C17.2213 13.0342 17.2287 13.0915 17.2425 13.1465L16.5745 13.8144ZM17.6793 11.9217C17.3688 12.223 16.9586 12.3822 16.5255 12.3688C15.6777 12.3434 14.988 11.5966 14.988 10.7042V10.1565C14.988 10.111 14.9774 10.0662 14.9571 10.0255L14.7761 9.66358C14.7098 9.53096 14.6748 9.38252 14.6748 9.23424V9.21678C14.6748 8.51467 15.246 7.9435 15.948 7.9435H18.4743V9.1603C18.4743 9.35694 18.4279 9.55385 18.3399 9.72975L18.192 10.0255C18.1717 10.0662 18.1611 10.111 18.1611 10.1565V10.783C18.1611 11.2158 17.99 11.6202 17.6793 11.9217Z" fill="#7DD56F"/>
<path d="M18.454 14.8756C18.2922 14.8756 18.1611 15.0068 18.1611 15.1686V17.0481C18.1611 17.2099 18.2922 17.341 18.454 17.341C18.6158 17.341 18.747 17.2099 18.747 17.0481V15.1686C18.747 15.0068 18.6158 14.8756 18.454 14.8756Z" fill="#7DD56F"/>
<path d="M1.54597 15.2628C1.38418 15.2628 1.25301 15.394 1.25301 15.5558V17.048C1.25301 17.2098 1.38418 17.341 1.54597 17.341C1.70777 17.341 1.83894 17.2098 1.83894 17.048V15.5558C1.83894 15.394 1.70777 15.2628 1.54597 15.2628Z" fill="#7DD56F"/>
<path d="M12.4036 6.19033C11.2956 5.08228 8.97723 5.29412 8.03184 5.43662C7.73407 5.4815 7.51797 5.73349 7.51797 6.0358V6.71072C7.51797 6.87252 7.64915 7.00369 7.81094 7.00369C7.97274 7.00369 8.10391 6.87252 8.10391 6.71072V6.03576C8.10391 6.0258 8.11047 6.01728 8.11922 6.01595C8.49684 5.95904 9.24618 5.87123 10.0225 5.92299C10.9361 5.98381 11.5979 6.21314 11.9893 6.60463C12.1037 6.71904 12.2892 6.71904 12.4036 6.60463C12.518 6.49021 12.518 6.3047 12.4036 6.19033Z" fill="#7DD56F"/>
<path d="M6.55797 15.5021C6.39617 15.5021 6.265 15.6332 6.265 15.795V17.0481C6.265 17.2098 6.39617 17.341 6.55797 17.341C6.71977 17.341 6.85094 17.2098 6.85094 17.0481V15.795C6.85094 15.6333 6.71977 15.5021 6.55797 15.5021Z" fill="#7DD56F"/>
<path d="M13.4494 15.5021C13.2877 15.5021 13.1565 15.6332 13.1565 15.795V17.0481C13.1565 17.2098 13.2877 17.341 13.4494 17.341C13.6112 17.341 13.7424 17.2098 13.7424 17.0481V15.795C13.7424 15.6333 13.6112 15.5021 13.4494 15.5021Z" fill="#7DD56F"/>
</svg>
