<svg width="20" height="20" viewBox="0 0 20 20" fill="none" xmlns="http://www.w3.org/2000/svg">
<g clip-path="url(#clip0)">
<path d="M10 8.07153C11.8769 8.07153 13.3984 6.55 13.3984 4.6731C13.3984 2.79619 11.8769 1.27466 10 1.27466C8.12309 1.27466 6.60156 2.79619 6.60156 4.6731C6.60156 6.55 8.12309 8.07153 10 8.07153Z" fill="#7DD56F"/>
<path d="M16.875 8.07142C18.0615 8.07142 19.0234 7.10953 19.0234 5.92298C19.0234 4.73643 18.0615 3.77454 16.875 3.77454C15.6885 3.77454 14.7266 4.73643 14.7266 5.92298C14.7266 7.10953 15.6885 8.07142 16.875 8.07142Z" fill="#7DD56F"/>
<path d="M3.125 8.07142C4.31155 8.07142 5.27344 7.10953 5.27344 5.92298C5.27344 4.73643 4.31155 3.77454 3.125 3.77454C1.93845 3.77454 0.976562 4.73643 0.976562 5.92298C0.976562 7.10953 1.93845 8.07142 3.125 8.07142Z" fill="#7DD56F"/>
<path d="M5.2418 10.0008C4.39609 9.30793 3.6302 9.39965 2.65234 9.39965C1.18984 9.39965 0 10.5825 0 12.036V16.302C0 16.9332 0.515234 17.4465 1.14883 17.4465C3.88422 17.4465 3.55469 17.496 3.55469 17.3286C3.55469 14.3057 3.19664 12.0888 5.2418 10.0008V10.0008Z" fill="#7DD56F"/>
<path d="M10.9301 9.41523C9.2221 9.27277 7.73753 9.41687 6.45702 10.4738C4.31417 12.1902 4.72655 14.5013 4.72655 17.3285C4.72655 18.0765 5.33515 18.6965 6.09452 18.6965C14.3399 18.6965 14.6681 18.9624 15.157 17.8797C15.3174 17.5135 15.2734 17.6299 15.2734 14.1269C15.2734 11.3447 12.8643 9.41523 10.9301 9.41523V9.41523Z" fill="#7DD56F"/>
<path d="M17.3476 9.39967C16.3644 9.39967 15.6027 9.30889 14.7582 10.0008C16.7881 12.0733 16.4453 14.1389 16.4453 17.3286C16.4453 17.4971 16.1717 17.4466 18.8101 17.4466C19.4664 17.4466 20 16.9149 20 16.2614V12.036C20 10.5825 18.8101 9.39967 17.3476 9.39967Z" fill="#7DD56F"/>
</g>
<defs>
<clipPath id="clip0">
<rect width="20" height="20" fill="white"/>
</clipPath>
</defs>
</svg>
