<svg width="512" height="512" viewBox="0 0 512 512" fill="none" xmlns="http://www.w3.org/2000/svg">
<path d="M490.24 113.92C476.352 89.216 461.28 84.672 430.592 82.944C399.936 80.864 322.848 80 256.064 80C189.152 80 112.032 80.864 81.408 82.912C50.784 84.672 35.68 89.184 21.664 113.92C7.36 138.592 0 181.088 0 255.904C0 255.968 0 256 0 256C0 256.064 0 256.096 0 256.096V256.16C0 330.656 7.36 373.472 21.664 397.888C35.68 422.592 50.752 427.072 81.376 429.152C112.032 430.944 189.152 432 256.064 432C322.848 432 399.936 430.944 430.624 429.184C461.312 427.104 476.384 422.624 490.272 397.92C504.704 373.504 512 330.688 512 256.192C512 256.192 512 256.096 512 256.032C512 256.032 512 255.968 512 255.936C512 181.088 504.704 138.592 490.24 113.92ZM192 352V160L352 256L192 352Z" fill="#999999"/>
</svg>
